<svg xmlns="http://www.w3.org/2000/svg" viewBox="0 0 1600 900" width="1600" height="900" role="img">
  <title>Machetă de structură — conținut placeholder</title>
  <defs>
    <pattern id="g" width="40" height="40" patternUnits="userSpaceOnUse">
      <path d="M 40 0 L 0 0 0 40" fill="none" stroke="#1A2536" stroke-width="1" stroke-opacity="0.55"/>
    </pattern>
  </defs>
  <rect width="1600" height="900" fill="#0D1421"/>
  <rect width="1600" height="900" fill="url(#g)"/>
  <rect x="40" y="40" width="1520" height="820" fill="none" stroke="#1A2536"/>
  <path d="M 60 88 L 60 60 L 88 60" fill="none" stroke="#4C7DFF" stroke-opacity="0.45" stroke-width="2"/>
  <path d="M 1540 88 L 1540 60 L 1512 60" fill="none" stroke="#4C7DFF" stroke-opacity="0.45" stroke-width="2"/>
  <path d="M 60 812 L 60 840 L 88 840" fill="none" stroke="#4C7DFF" stroke-opacity="0.45" stroke-width="2"/>
  <path d="M 1540 812 L 1540 840 L 1512 840" fill="none" stroke="#4C7DFF" stroke-opacity="0.45" stroke-width="2"/>
  <rect x="200" y="200" width="1200" height="42" fill="#1A2536" fill-opacity="0.6"/>
    <rect x="200" y="250" width="1200" height="1" fill="#1A2536"/>
    <rect x="220" y="270" width="90" height="12" rx="2" fill="#7C8798" fill-opacity="0.35"/>
    <rect x="360" y="270" width="240" height="12" rx="2" fill="#1A2536"/>
    <rect x="1000" y="270" width="60" height="12" rx="2" fill="#D9A441" fill-opacity="0.8"/>
    <rect x="1280" y="270" width="100" height="12" rx="2" fill="#4C7DFF" fill-opacity="0.55"/>
    <rect x="200" y="308" width="1200" height="1" fill="#1A2536"/>
    <rect x="220" y="328" width="90" height="12" rx="2" fill="#7C8798" fill-opacity="0.35"/>
    <rect x="360" y="328" width="287" height="12" rx="2" fill="#1A2536"/>
    <rect x="1000" y="328" width="60" height="12" rx="2" fill="#1A2536" fill-opacity="1"/>
    <rect x="1280" y="328" width="100" height="12" rx="2" fill="#4C7DFF" fill-opacity="0.55"/>
    <rect x="200" y="366" width="1200" height="1" fill="#1A2536"/>
    <rect x="220" y="386" width="90" height="12" rx="2" fill="#7C8798" fill-opacity="0.35"/>
    <rect x="360" y="386" width="334" height="12" rx="2" fill="#1A2536"/>
    <rect x="1000" y="386" width="60" height="12" rx="2" fill="#1A2536" fill-opacity="1"/>
    <rect x="1280" y="386" width="100" height="12" rx="2" fill="#4C7DFF" fill-opacity="0.55"/>
    <rect x="200" y="424" width="1200" height="1" fill="#1A2536"/>
    <rect x="220" y="444" width="90" height="12" rx="2" fill="#7C8798" fill-opacity="0.35"/>
    <rect x="360" y="444" width="381" height="12" rx="2" fill="#1A2536"/>
    <rect x="1000" y="444" width="60" height="12" rx="2" fill="#1A2536" fill-opacity="1"/>
    <rect x="1280" y="444" width="100" height="12" rx="2" fill="#4C7DFF" fill-opacity="0.55"/>
    <rect x="200" y="482" width="1200" height="1" fill="#1A2536"/>
    <rect x="220" y="502" width="90" height="12" rx="2" fill="#7C8798" fill-opacity="0.35"/>
    <rect x="360" y="502" width="428" height="12" rx="2" fill="#1A2536"/>
    <rect x="1000" y="502" width="60" height="12" rx="2" fill="#D9A441" fill-opacity="0.8"/>
    <rect x="1280" y="502" width="100" height="12" rx="2" fill="#4C7DFF" fill-opacity="0.55"/>
    <rect x="200" y="540" width="1200" height="1" fill="#1A2536"/>
    <rect x="220" y="560" width="90" height="12" rx="2" fill="#7C8798" fill-opacity="0.35"/>
    <rect x="360" y="560" width="275" height="12" rx="2" fill="#1A2536"/>
    <rect x="1000" y="560" width="60" height="12" rx="2" fill="#1A2536" fill-opacity="1"/>
    <rect x="1280" y="560" width="100" height="12" rx="2" fill="#4C7DFF" fill-opacity="0.55"/>
    <rect x="200" y="598" width="1200" height="1" fill="#1A2536"/>
    <rect x="220" y="618" width="90" height="12" rx="2" fill="#7C8798" fill-opacity="0.35"/>
    <rect x="360" y="618" width="322" height="12" rx="2" fill="#1A2536"/>
    <rect x="1000" y="618" width="60" height="12" rx="2" fill="#1A2536" fill-opacity="1"/>
    <rect x="1280" y="618" width="100" height="12" rx="2" fill="#4C7DFF" fill-opacity="0.55"/>
    <rect x="200" y="656" width="1200" height="1" fill="#1A2536"/>
    <rect x="220" y="676" width="90" height="12" rx="2" fill="#7C8798" fill-opacity="0.35"/>
    <rect x="360" y="676" width="369" height="12" rx="2" fill="#1A2536"/>
    <rect x="1000" y="676" width="60" height="12" rx="2" fill="#1A2536" fill-opacity="1"/>
    <rect x="1280" y="676" width="100" height="12" rx="2" fill="#4C7DFF" fill-opacity="0.55"/>
    <rect x="200" y="714" width="1200" height="1" fill="#1A2536"/>
    <rect x="220" y="734" width="90" height="12" rx="2" fill="#7C8798" fill-opacity="0.35"/>
    <rect x="360" y="734" width="416" height="12" rx="2" fill="#1A2536"/>
    <rect x="1000" y="734" width="60" height="12" rx="2" fill="#D9A441" fill-opacity="0.8"/>
    <rect x="1280" y="734" width="100" height="12" rx="2" fill="#4C7DFF" fill-opacity="0.55"/>
  <rect x="1280" y="86" width="220" height="34" rx="2" fill="#060A12" stroke="#D9A441" stroke-opacity="0.5"/>
  <text x="1390" y="109" fill="#D9A441" font-family="ui-monospace, monospace" font-size="15" letter-spacing="3" text-anchor="middle">PLACEHOLDER</text>
  <text x="100" y="822" fill="#7C8798" font-family="ui-monospace, monospace" font-size="17" letter-spacing="3.5">CATALOG B2B · MACHETĂ</text>
  <text x="100" y="848" fill="#7C8798" font-family="ui-monospace, monospace" font-size="14" letter-spacing="2" opacity="0.7">MERIDIAN · SW · MAGAZIN-PIESE-SCHIMB</text>
</svg>
